<svg width="47" height="47" viewBox="0 0 47 47" fill="none" xmlns="http://www.w3.org/2000/svg">
<path d="M23.439 46.4887C10.5923 46.4887 0.136963 36.0615 0.136963 23.2443C0.136963 10.4272 10.5923 0 23.439 0C36.2857 0 46.741 10.4272 46.741 23.2443C46.741 36.0615 36.2894 46.4887 23.439 46.4887ZM23.439 3.70546C12.6352 3.70546 3.84452 12.4689 3.84452 23.2443C3.84452 34.0198 12.6352 42.7832 23.439 42.7832C34.2428 42.7832 43.0334 34.0198 43.0334 23.2443C43.0334 12.4689 34.2428 3.70546 23.439 3.70546Z" fill="white"/>
<path d="M26.0751 15.3258C26.698 14.607 27.3171 13.8881 27.94 13.1692C28.2106 12.7357 28.1476 12.1873 27.8176 11.8649C27.4321 11.4833 26.7462 11.4795 26.3161 11.9168C25.8712 12.417 25.4188 12.921 24.9702 13.4249C24.9517 13.3953 24.9369 13.3656 24.9183 13.336C24.6736 13.0507 23.5873 11.8427 21.7298 11.6204C20.1319 11.4314 18.9417 12.0909 18.5784 12.3096C19.5572 13.9956 20.536 15.6815 21.5148 17.3675C20.6954 18.3198 19.876 19.2869 19.0678 20.2726C17.0583 22.7256 15.0488 25.1786 13.0393 27.6316C12.8428 27.9911 12.1384 29.3806 12.5462 31.1037C12.8206 32.2598 13.4583 33.012 13.7882 33.3529C16.6245 29.955 19.4608 26.5571 22.3008 23.1591C21.8967 22.4699 21.4925 21.7807 21.0921 21.0915C21.6075 20.4949 22.1265 19.8946 22.6419 19.2981C25.0147 23.3815 27.3839 27.4649 29.7567 31.5483C30.0014 31.8336 31.0877 33.0416 32.9452 33.2639C34.5432 33.4529 35.7333 32.7933 36.0966 32.5747C32.7561 26.8238 29.4193 21.073 26.0788 15.3221L26.0751 15.3258ZM23.8543 16.9525C23.4613 16.9525 23.1387 16.6338 23.1387 16.2411C23.1387 15.8483 23.4575 15.5296 23.8543 15.5296C24.251 15.5296 24.5698 15.8483 24.5698 16.2411C24.5698 16.6338 24.251 16.9525 23.8543 16.9525Z" fill="white"/>
</svg>
