<svg width="54" height="54" viewBox="0 0 54 54" fill="none" xmlns="http://www.w3.org/2000/svg">
<path fill-rule="evenodd" clip-rule="evenodd" d="M10.2888 2.52362C10.8428 1.97393 11.7409 1.97393 12.2948 2.52362L21.322 11.4814C21.8759 12.031 21.8759 12.9223 21.322 13.472C20.768 14.0216 19.8699 14.0216 19.316 13.472L12.7103 6.91711V41.5233H47.5847L40.9791 34.9685C40.4251 34.4188 40.4251 33.5276 40.9791 32.9779C41.533 32.4282 42.4312 32.4282 42.9851 32.9779L52.0123 41.9356C52.5662 42.4853 52.5662 43.3765 52.0123 43.9262L42.9851 52.8839C42.4312 53.4336 41.533 53.4336 40.9791 52.8839C40.4251 52.3343 40.4251 51.443 40.9791 50.8933L47.5847 44.3385H12.7103C11.1435 44.3385 9.87335 43.0781 9.87335 41.5233V6.91711L3.2677 13.472C2.71375 14.0216 1.81562 14.0216 1.26167 13.472C0.707715 12.9223 0.707715 12.031 1.26167 11.4814L10.2888 2.52362Z" fill="black"/>
<path fill-rule="evenodd" clip-rule="evenodd" d="M51.0092 34.4855C50.2258 34.4855 49.5908 33.8553 49.5908 33.0779V3.51893H19.8027C19.0193 3.51893 18.3842 2.88874 18.3842 2.11136C18.3842 1.33398 19.0193 0.703786 19.8027 0.703786H49.5908C51.1576 0.703786 52.4277 1.96417 52.4277 3.51893V33.0779C52.4277 33.8553 51.7927 34.4855 51.0092 34.4855Z" fill="black"/>
<path fill-rule="evenodd" clip-rule="evenodd" d="M17.675 2.11136C17.675 0.945287 18.6276 0 19.8027 0H49.5908C51.5493 0 53.137 1.57548 53.137 3.51893V33.0779C53.137 34.244 52.1844 35.1893 51.0092 35.1893C49.8341 35.1893 48.8815 34.244 48.8815 33.0779V4.22271H19.8027C18.6276 4.22271 17.675 3.27743 17.675 2.11136ZM19.8027 1.40757C19.411 1.40757 19.0935 1.72267 19.0935 2.11136C19.0935 2.50005 19.411 2.81514 19.8027 2.81514H50.3V33.0779C50.3 33.4666 50.6175 33.7817 51.0092 33.7817C51.4009 33.7817 51.7185 33.4666 51.7185 33.0779V3.51893C51.7185 2.35286 50.7659 1.40757 49.5908 1.40757H19.8027ZM9.7873 2.02597C10.6182 1.20144 11.9654 1.20144 12.7964 2.02597L21.8235 10.9837C22.6544 11.8082 22.6544 13.1451 21.8235 13.9696C20.9926 14.7941 19.6454 14.7941 18.8145 13.9696L13.4195 8.61619V40.8196H45.8725L40.4776 35.4661C39.6466 34.6416 39.6466 33.3048 40.4776 32.4802C41.3085 31.6557 42.6557 31.6557 43.4866 32.4802L52.5138 41.438C53.3447 42.2625 53.3447 43.5993 52.5138 44.4239L43.4866 53.3816C42.6557 54.2061 41.3085 54.2061 40.4776 53.3816C39.6466 52.5571 39.6466 51.2202 40.4776 50.3957L45.8725 45.0423H12.7103C10.7518 45.0423 9.16411 43.4668 9.16411 41.5233V8.61619L3.76921 13.9696C2.93828 14.7941 1.59108 14.7941 0.760157 13.9696C-0.0707686 13.1451 -0.0707686 11.8082 0.760157 10.9837L9.7873 2.02597ZM11.7933 3.02128C11.5164 2.74643 11.0673 2.74643 10.7903 3.02128L1.76317 11.979C1.4862 12.2538 1.4862 12.6995 1.76317 12.9743C2.04015 13.2492 2.48921 13.2492 2.76619 12.9743L10.5826 5.21802V41.5233C10.5826 42.6894 11.5352 43.6347 12.7103 43.6347H49.297L41.4806 51.391C41.2036 51.6658 41.2036 52.1115 41.4806 52.3863C41.7576 52.6611 42.2066 52.6611 42.4836 52.3863L51.5108 43.4286C51.7877 43.1537 51.7877 42.7081 51.5108 42.4333L42.4836 33.4755C42.2066 33.2007 41.7576 33.2007 41.4806 33.4755C41.2036 33.7504 41.2036 34.196 41.4806 34.4708L49.297 42.2271H12.0011V5.21802L19.8175 12.9743C20.0944 13.2492 20.5435 13.2492 20.8205 12.9743C21.0975 12.6995 21.0975 12.2538 20.8205 11.979L11.7933 3.02128Z" fill="black"/>
</svg>
