<svg width="34" height="32" viewBox="0 0 34 32" fill="none" xmlns="http://www.w3.org/2000/svg">
<path fill-rule="evenodd" clip-rule="evenodd" d="M14.137 29C18.8314 29 22.637 25.1944 22.637 20.5C22.637 15.8056 18.8314 12 14.137 12C9.44254 12 5.63696 15.8056 5.63696 20.5C5.63696 25.1944 9.44254 29 14.137 29ZM14.137 32C20.4882 32 25.637 26.8513 25.637 20.5C25.637 14.1487 20.4882 9 14.137 9C7.78569 9 2.63696 14.1487 2.63696 20.5C2.63696 26.8513 7.78569 32 14.137 32Z" fill="black"/>
<path fill-rule="evenodd" clip-rule="evenodd" d="M32.6422 0.886654C33.2571 1.44181 33.3055 2.39032 32.7503 3.00522L13.6363 24.1758L0.577249 11.1401C-0.00905946 10.5548 -0.00990668 9.60504 0.575357 9.01873C1.16062 8.43242 2.11037 8.43157 2.69668 9.01684L13.5233 19.8242L30.5236 0.994809C31.0788 0.379918 32.0273 0.331496 32.6422 0.886654Z" fill="black"/>
</svg>
